<?xml version="1.0" standalone="no"?>
<!DOCTYPE svg PUBLIC "-//W3C//DTD SVG 20010904//EN"
 "http://www.w3.org/TR/2001/REC-SVG-20010904/DTD/svg10.dtd">
<svg version="1.0" xmlns="http://www.w3.org/2000/svg"
 width="260.000000pt" height="260.000000pt" viewBox="0 0 260.000000 260.000000"
 preserveAspectRatio="xMidYMid meet">
<metadata>
Created by potrace 1.11, written by Peter Selinger 2001-2013
</metadata>
<g transform="translate(0.000000,260.000000) scale(0.100000,-0.100000)"
fill="#000000" stroke="none">
<path d="M729 1876 c-1 -1 -2 -16 -3 -33 -1 -26 2 -33 16 -33 35 0 56 -58 92
-255 65 -349 223 -1113 232 -1121 7 -5 28 -8 47 -6 34 4 34 4 41 65 6 65 8 80
32 218 7 47 16 98 18 115 2 16 11 74 20 129 8 55 18 118 21 140 3 22 8 47 10
55 2 8 7 38 11 65 3 28 7 57 9 65 1 8 8 54 15 103 7 48 17 87 22 87 4 0 7 -3
6 -7 -2 -12 13 -126 27 -193 2 -14 7 -41 10 -60 3 -19 8 -46 10 -60 3 -14 7
-42 10 -62 12 -88 16 -117 30 -198 8 -47 17 -103 20 -125 4 -22 8 -51 10 -64
2 -13 12 -76 21 -139 10 -63 23 -120 30 -126 13 -14 83 -9 85 5 1 5 2 12 3 17
1 4 5 28 9 53 4 25 10 57 12 70 8 45 105 614 111 649 3 19 16 100 30 180 14
80 27 156 29 170 2 14 9 56 15 95 15 97 35 135 70 135 25 0 28 3 27 33 l-1 34
-100 -1 -100 -1 -1 -28 c-2 -22 4 -31 22 -38 35 -13 37 -29 19 -137 -9 -53
-18 -108 -21 -122 -6 -40 -35 -212 -41 -245 -3 -16 -7 -41 -9 -55 -10 -60 -45
-267 -49 -285 -2 -12 -7 -47 -11 -79 -4 -31 -11 -54 -15 -49 -4 4 -15 60 -24
123 -9 63 -18 126 -20 140 -6 34 -45 290 -57 370 -5 36 -11 79 -14 95 -26 166
-29 206 -13 222 9 9 34 19 54 22 33 5 38 10 39 34 1 15 -1 28 -4 28 -3 1 -84
3 -178 4 l-173 2 0 -33 c0 -29 4 -34 23 -34 59 -1 84 -70 67 -185 -5 -33 -12
-78 -15 -100 -4 -22 -8 -51 -11 -65 -5 -28 -11 -71 -19 -127 -3 -21 -7 -45
-10 -53 -2 -8 -6 -37 -10 -65 -3 -27 -14 -102 -25 -165 -26 -155 -28 -171 -29
-200 -2 -37 -17 -6 -24 50 -7 51 -13 82 -27 155 -32 159 -123 675 -123 699 0
33 25 56 60 56 19 0 23 5 23 33 l0 34 -165 0 c-91 -1 -165 -1 -166 -1z"/>
</g>
</svg>
